<svg width="24" height="24" viewBox="0 0 24 24" fill="none" xmlns="http://www.w3.org/2000/svg">
<g clip-path="url(#clip0_46_2192)">
<g opacity="0.3">
<path fill-rule="evenodd" clip-rule="evenodd" d="M12 0C5.37258 0 0 5.37258 0 12C0 18.6274 5.37258 24 12 24C18.6274 24 24 18.6274 24 12C24 5.37258 18.6274 0 12 0ZM17.7071 9.70711C18.0976 9.31658 18.0976 8.68342 17.7071 8.29289C17.3166 7.90237 16.6834 7.90237 16.2929 8.29289L10.0565 14.5293L7.75926 11.8492C7.39983 11.4299 6.76853 11.3813 6.34921 11.7407C5.92988 12.1002 5.88132 12.7315 6.24074 13.1508L9.24074 16.6508C9.42202 16.8623 9.68328 16.9886 9.96162 16.9993C10.24 17.01 10.5101 16.9041 10.7071 16.7071L17.7071 9.70711Z" fill="#B8B8B8"/>
</g>
</g>
<defs>
<clipPath id="clip0_46_2192">
<rect width="24" height="24" fill="white"/>
</clipPath>
</defs>
</svg>
