<svg width="32" height="32" viewBox="0 0 32 32" fill="none" xmlns="http://www.w3.org/2000/svg">
<path d="M16 32C24.8366 32 32 24.8366 32 16C32 7.16344 24.8366 0 16 0C7.16344 0 0 7.16344 0 16C0 24.8366 7.16344 32 16 32Z" fill="#FFE812"/>
<path d="M16 7.60004C10.7 7.60004 6.40002 10.988 6.40002 15.167C6.40002 17.867 8.20002 20.24 10.9 21.579C10.753 22.086 9.95502 24.841 9.92402 25.057C9.92402 25.057 9.90502 25.22 10.01 25.282C10.0452 25.2998 10.0837 25.3102 10.1231 25.3126C10.1625 25.3151 10.2019 25.3094 10.239 25.296C10.539 25.254 13.739 23.006 14.294 22.616C14.8572 22.6954 15.4253 22.7352 15.994 22.735C21.294 22.735 25.594 19.347 25.594 15.168C25.594 10.989 21.3 7.60004 16 7.60004Z" fill="#3C1E1E"/>
<path d="M10.691 17.809C10.5474 17.8122 10.4084 17.7584 10.3045 17.6592C10.2006 17.56 10.1404 17.4236 10.137 17.28V13.987H9.27296C9.12922 13.987 8.99135 13.9299 8.88971 13.8282C8.78806 13.7266 8.73096 13.5888 8.73096 13.445C8.73096 13.3013 8.78806 13.1634 8.88971 13.0618C8.99135 12.9601 9.12922 12.903 9.27296 12.903H12.108C12.2517 12.903 12.3896 12.9601 12.4912 13.0618C12.5929 13.1634 12.65 13.3013 12.65 13.445C12.65 13.5888 12.5929 13.7266 12.4912 13.8282C12.3896 13.9299 12.2517 13.987 12.108 13.987H11.244V17.276C11.2428 17.3474 11.2275 17.4178 11.1991 17.4832C11.1706 17.5487 11.1296 17.6079 11.0782 17.6574C11.0268 17.7069 10.9661 17.7458 10.8997 17.7718C10.8332 17.7978 10.7623 17.8105 10.691 17.809ZM15.546 17.802C15.4532 17.8136 15.3592 17.7963 15.2767 17.7524C15.1942 17.7086 15.1273 17.6403 15.085 17.557L14.811 16.8391H13.123L12.849 17.557C12.8065 17.6401 12.7395 17.7082 12.657 17.7518C12.5745 17.7955 12.4806 17.8127 12.388 17.801C12.2665 17.801 12.1464 17.7747 12.036 17.724C11.883 17.654 11.736 17.46 11.905 16.938L13.229 13.452C13.2769 13.2936 13.3745 13.1548 13.5074 13.0561C13.6403 12.9574 13.8014 12.9042 13.967 12.9042C14.1325 12.9042 14.2936 12.9574 14.4265 13.0561C14.5594 13.1548 14.657 13.2936 14.705 13.452L16.029 16.936C16.198 17.459 16.051 17.653 15.898 17.723C15.7875 17.7737 15.6675 17.8 15.546 17.8V17.802ZM14.52 15.859L13.967 14.288L13.414 15.859H14.52ZM16.92 17.729C16.7822 17.732 16.6489 17.6801 16.5494 17.5849C16.4498 17.4897 16.3921 17.3588 16.389 17.221V13.46C16.389 13.3102 16.4485 13.1664 16.5544 13.0605C16.6604 12.9545 16.8041 12.895 16.954 12.895C17.1038 12.895 17.2475 12.9545 17.3535 13.0605C17.4594 13.1664 17.519 13.3102 17.519 13.46V16.713H18.695C18.7635 16.71 18.832 16.7209 18.8962 16.745C18.9604 16.7691 19.0191 16.806 19.0687 16.8535C19.1182 16.9009 19.1577 16.9578 19.1846 17.0209C19.2116 17.084 19.2255 17.1519 19.2255 17.2205C19.2255 17.2891 19.2116 17.357 19.1846 17.4201C19.1577 17.4832 19.1182 17.5402 19.0687 17.5876C19.0191 17.635 18.9604 17.6719 18.8962 17.696C18.832 17.7202 18.7635 17.7311 18.695 17.728L16.92 17.729ZM19.996 17.803C19.849 17.803 19.7081 17.7446 19.6042 17.6407C19.5003 17.5369 19.442 17.396 19.442 17.249V13.461C19.448 13.3183 19.509 13.1834 19.6121 13.0846C19.7153 12.9857 19.8526 12.9305 19.9955 12.9305C20.1383 12.9305 20.2756 12.9857 20.3788 13.0846C20.4819 13.1834 20.5429 13.3183 20.549 13.461V14.651L22.094 13.106C22.1345 13.0663 22.1825 13.035 22.2352 13.0139C22.2879 12.9928 22.3442 12.9823 22.401 12.983C22.5392 12.9868 22.6711 13.0414 22.7715 13.1364C22.8719 13.2315 22.9337 13.3603 22.945 13.498C22.9499 13.5597 22.9416 13.6216 22.9206 13.6797C22.8995 13.7379 22.8662 13.7909 22.823 13.835L21.561 15.096L22.924 16.902C23.0067 17.0196 23.0406 17.1647 23.0183 17.3068C22.9961 17.4488 22.9195 17.5767 22.8047 17.6633C22.6899 17.7499 22.546 17.7885 22.4033 17.7709C22.2606 17.7533 22.1303 17.6809 22.04 17.569L20.74 15.848L20.548 16.04V17.248C20.5477 17.3949 20.4892 17.5356 20.3854 17.6395C20.2816 17.7433 20.1408 17.8017 19.994 17.802L19.996 17.803Z" fill="#FFE812"/>
</svg>
