<svg width="24" height="24" viewBox="0 0 24 24" fill="none" xmlns="http://www.w3.org/2000/svg">
<path fill-rule="evenodd" clip-rule="evenodd" d="M12 3.75C9.65279 3.75 7.75 5.65279 7.75 8V9H6C4.89543 9 4 9.89543 4 11V19C4 20.1046 4.89543 21 6 21H18C19.1046 21 20 20.1046 20 19V11C20 9.89543 19.1046 9 18 9H16.25V8C16.25 5.65279 14.3472 3.75 12 3.75ZM14.75 9V8C14.75 6.48122 13.5188 5.25 12 5.25C10.4812 5.25 9.25 6.48122 9.25 8V9H14.75ZM18.5 11C18.5 10.7239 18.2761 10.5 18 10.5H6C5.72386 10.5 5.5 10.7239 5.5 11V19C5.5 19.2761 5.72386 19.5 6 19.5H18C18.2761 19.5 18.5 19.2761 18.5 19V11ZM12 13.25C12.4142 13.25 12.75 13.5858 12.75 14V16C12.75 16.4142 12.4142 16.75 12 16.75C11.5858 16.75 11.25 16.4142 11.25 16V14C11.25 13.5858 11.5858 13.25 12 13.25Z" fill="#D2D2D2"/>
</svg>
