<svg width="24" height="24" viewBox="0 0 24 24" fill="none" xmlns="http://www.w3.org/2000/svg">
<path fill-rule="evenodd" clip-rule="evenodd" d="M8.75007 8C8.75007 6.20507 10.2051 4.75 12.0001 4.75C13.795 4.75 15.2501 6.20507 15.2501 8C15.2501 9.79493 13.795 11.25 12.0001 11.25C10.2051 11.25 8.75007 9.79493 8.75007 8ZM12.0001 3.25C9.37672 3.25 7.25007 5.37665 7.25007 8C7.25007 10.6234 9.37672 12.75 12.0001 12.75C14.6234 12.75 16.7501 10.6234 16.7501 8C16.7501 5.37665 14.6234 3.25 12.0001 3.25ZM12.0001 15.25C10.1202 15.25 8.2772 15.7143 6.75589 16.5898C5.23501 17.4651 4.09309 18.7205 3.56639 20.1948C3.42703 20.5848 3.63027 21.014 4.02034 21.1534C4.4104 21.2927 4.83959 21.0895 4.97894 20.6994C5.36384 19.6221 6.23065 18.6228 7.50408 17.8899C8.77707 17.1573 10.3578 16.75 12.0001 16.75C13.6423 16.75 15.2231 17.1573 16.4961 17.8899C17.7695 18.6228 18.6363 19.6221 19.0212 20.6994C19.1606 21.0895 19.5897 21.2927 19.9798 21.1534C20.3699 21.014 20.5731 20.5848 20.4338 20.1948C19.9071 18.7205 18.7651 17.4651 17.2443 16.5898C15.7229 15.7143 13.88 15.25 12.0001 15.25Z" fill="#D2D2D2"/>
</svg>
