<svg width="24" height="24" viewBox="0 0 24 24" fill="none" xmlns="http://www.w3.org/2000/svg">
<path d="M12 4C10.4178 4 8.87103 4.46919 7.55544 5.34824C6.23985 6.22729 5.21447 7.47673 4.60897 8.93854C4.00347 10.4003 3.84504 12.0089 4.15372 13.5607C4.4624 15.1126 5.22434 16.538 6.34316 17.6569C7.46198 18.7757 8.88744 19.5376 10.4393 19.8463C11.9911 20.155 13.5997 19.9965 15.0615 19.391C16.5233 18.7855 17.7727 17.7602 18.6518 16.4446C19.5308 15.129 20 13.5823 20 12C20 9.87827 19.1572 7.84344 17.6569 6.34315C16.1566 4.84286 14.1217 4 12 4Z" fill="#D2D2D2"/>
<path d="M20 12C20 16.4183 16.4183 20 12 20C7.58172 20 4 16.4183 4 12C4 7.58172 7.58173 4 12 4C16.4183 4 20 7.58172 20 12Z" fill="#D2D2D2"/>
<path d="M11.2749 13.7549C11.2856 12.3154 11.7261 11.875 12.4673 11.4238C12.9131 11.1553 13.2515 10.7256 13.2515 10.124C13.2515 9.39355 12.6821 8.92627 11.9731 8.93164C11.3608 8.92627 10.7432 9.2915 10.6841 10.1777H9.70654C9.76025 8.87256 10.7432 8.11523 11.9731 8.11523C13.3213 8.11523 14.1968 8.97998 14.1968 10.167C14.1968 11.0103 13.7993 11.5957 13.1333 12.0039C12.4619 12.4121 12.2202 12.8257 12.1987 13.7549V13.8086H11.2749V13.7549ZM11.0815 15.3662C11.0708 14.9902 11.3931 14.6787 11.769 14.6787C12.1504 14.6787 12.4619 14.9902 12.4565 15.3662C12.4619 15.7476 12.1504 16.0591 11.769 16.0645C11.3931 16.0591 11.0708 15.7476 11.0815 15.3662Z" fill="white"/>
</svg>
